<svg xmlns="http://www.w3.org/2000/svg" viewBox="0 0 56.7 56.7">
  <path d="M42.1 24.8c-.9-6.5 3.4-4.7 3.4-4.7L44.2 19l7.6-9.5H50l-10.8 8.7-3.9.5s-4.6-2.1-8.8 0-5.7 4.4-5.7 4.4L16.1 25s-3.3-1.6-5.3-3.4-7.2-5.9-7.2-5.9l-.9.3v2.8l6.1 8.5S3.5 34 3.9 34.7c.5.8 7.9-3.9 7.9-3.9s9.7 1.1 10.6 1.5c1.5.5.2 1.4.2 1.4s-8.9 10.6-10.3 12.4-5.8 8.7-5.8 8.7h.8l5.1-4.1S30.1 35.2 31 34.6c.9-.6 5.4-3.4 6.5-3.7s8.2-1.8 8.2-1.8-2.9 0-3.6-4.4Zm-18.4-2.7.3-.2c1.4-1 3-1.9 4.7-2.5l.9.9-5.9 1.8Zm7.4-2.2-.6-.8c.7 0 1.5 0 2.2.2h.3l-1.9.6Z" style="fill:#b1bdc0"/>
  <path d="M45.8 21.5s3.5 1 3.6 2.6c0 1.8-2.5 4.2-3.2 4.1-1-.2-1.9-1.3-2.1-3.4-.3-2.8.5-3.6 1.7-3.3ZM52.4 12.9c-.5-.2-1.6 1.7-2.6 4.2-.9 2.5-1.3 4.7-.9 4.9.5.2 1.6-1.7 2.6-4.2.9-2.5 1.3-4.7.9-4.9Zm-8.7 20c-.9 2.5-1.3 4.7-.9 4.9.5.2 1.6-1.7 2.6-4.2.9-2.5 1.3-4.7.9-4.9-.5-.2-1.6 1.7-2.6 4.2Z" style="fill:#3bec82"/>
  <path d="M16 25.1s-3.3-1.6-5.3-3.4-7.2-5.9-7.2-5.9l-.9.3v2.8l6.1 8.5 7.2-2.3Z" style="fill:#3bec82"/>
</svg>
