<svg xmlns="http://www.w3.org/2000/svg" viewBox="0 0 56.7 56.7">
  <path d="M45.5 37c-2.2-.8-3.6 0-4.3.8-.6.6-.7.9-1.2 2.6-1.1 3.6-4.6 5.6-4.6 5.6-8.8 3.9-12.7-4.6-12.7-4.6-2.3-7.3 3-10.8 3-10.8 8.5-5.4 13.5 2.4 13.5 2.4 1.3 2.3 3.7 1.6 3.7 1.6 4.4-1 3-4.8 3-4.8-4.5-9-14.6-8.9-14.6-8.9s4.6-8.5 6.4-12c.7-1.5.9-2.4.9-2.9-.1-1.4-.8-2.1-.8-2.1-1.7-1.9-3.6-1.6-4.8-1-1 .5-1.9 1.8-2.3 2.7-2.2 4-7.5 13.9-7.5 13.9s.3-7.5.4-10.7c0-.4 0-1.2-.1-2 0-.5-.1-.9-.4-1.4-.6-.9-1.3-1.5-1.3-1.5-4.6-1.6-5.7 3-5.7 3l-1 18.3-2.1-4.6c-1.8-3.4-4.8-2.2-4.8-2.2C4.8 19.7 5.7 23 5.7 23l10.5 22.6c5.5 9.7 13.8 9.1 13.8 9.1 11.8.4 15.9-8.3 15.9-8.3 1.6-2.6 1.9-4.6 1.9-6 0-1.1-.5-2.7-2.1-3.3Zm-19.2 1.3c0 2.7 2.2 4.9 4.9 4.9s4.9-2.2 4.9-4.9-2.2-4.9-4.9-4.9-4.9 2.2-4.9 4.9Z" style="fill:#3bec82;fill-rule:evenodd"/>
</svg>
