<svg xmlns="http://www.w3.org/2000/svg" viewBox="0 0 45 38" fill="none">
  <g clip-path="url(#a)" fill-rule="evenodd" clip-rule="evenodd">
    <path d="m37.464 30.932-.719-3.592 3.59-.718.717 3.591-3.588.719ZM33.372 5.33l.687-4.204 4.19.675-.675 4.204-4.202-.675ZM21.926 9.889l1.23-5.72 5.716 1.23-1.229 5.72-5.717-1.23ZM15.697.759 19.491 0l.76 3.796-3.795.758-.759-3.795ZM1.515 37.979a.748.748 0 0 1-.846-1.063l10.676-23.553L26.48 32.381 1.515 37.979Z" fill="#B3BEC1"/>
    <path d="M14.496 7.097a2.106 2.106 0 0 0-2.968-.333 2.104 2.104 0 0 0-.334 2.97l18.415 23.154a2.108 2.108 0 0 0 2.969.334 2.117 2.117 0 0 0 .334-2.97L14.496 7.097ZM35.397 7.446l2.785 5.645 6.227.905-4.506 4.395 1.064 6.205-5.57-2.929-5.57 2.929 1.064-6.205-4.506-4.395 6.227-.905 2.785-5.645Z" fill="#24EE88"/>
  </g>
  <defs><clipPath id="a"><path fill="#fff" d="M0 0h45v38H0z"/></clipPath></defs>
</svg>
