<svg xmlns="http://www.w3.org/2000/svg" viewBox="0 0 155.9 132.3">
  <path d="M78 3.6C40.4 3.6 9.9 34.1 9.9 71.7v23.4c0 4.2 3.4 7.6 7.6 7.6s7.6-3.4 7.6-7.6V72.2c0-29.8 24.2-54 54-54s54 24.2 54 54v24c0 3.6 2.9 6.5 6.5 6.5s6.5-2.9 6.5-6.5V71.7c0-37.6-30.5-68.1-68.1-68.1Z" style="fill:#b3bec1"/>
  <path d="M104.9 70.1c-6.5 0-11.8 5.3-11.8 11.8v36.6c0 5.4 4.4 9.8 9.8 9.8h2.9c11.9 0 21.5-9.6 21.5-21.5V92.5c0-12.3-10-22.4-22.4-22.4ZM53.3 70.1c-12.3 0-22.4 10-22.4 22.4v14.3c0 11.9 9.6 21.5 21.5 21.5h2.9c5.4 0 9.8-4.4 9.8-9.8V81.9c0-6.5-5.3-11.8-11.8-11.8Z" style="fill:#3bec82"/>
</svg>
