<svg xmlns="http://www.w3.org/2000/svg" viewBox="0 0 32 32" fill="none">
  <path clip-rule="evenodd" d="M16.706 6.3c-.5.504-.754 1.294-1.26 2.873L12.092 19.64c-.506 1.579-.76 2.368-.646 3.07.1.617.394 1.187.838 1.627.505.501 1.294.754 2.873 1.26l3.363 1.078c1.58.506 2.369.76 3.07.645a2.961 2.961 0 0 0 1.628-.837c.5-.505.753-1.294 1.26-2.874l3.354-10.466c.506-1.58.76-2.37.645-3.07a2.96 2.96 0 0 0-.837-1.628c-.505-.5-1.294-.754-2.873-1.26l-3.363-1.078c-1.58-.506-2.369-.759-3.07-.645-.618.1-1.188.393-1.628.837Zm2.174 13.194 3.49-1.717a.586.586 0 0 0 .01-.005l.007-.003a1.954 1.954 0 0 0-1.726-3.506 1.954 1.954 0 0 0-3.506 1.725l1.725 3.506Z" fill="#B0B3B3"/>
  <path d="M13.77 8.165c-1.26 3.936-2.56 7.86-3.8 11.804-.228.729-.343 1.093-.54 1.217a.634.634 0 0 1-.572.053c-.217-.086-.395-.421-.752-1.091-1.152-2.167-2.287-4.343-3.435-6.511-.776-1.466-1.164-2.199-1.175-2.91a2.961 2.961 0 0 1 .538-1.748c.409-.582 1.142-.97 2.607-1.746l2.45-1.297c1.466-.776 2.198-1.164 2.91-1.175a2.961 2.961 0 0 1 1.748.538c.055.039.109.08.16.125.132.114.198.17.29.336.064.116.127.344.132.476.006.19-.044.343-.146.65-.127.383-.263.808-.414 1.28Z" fill="#24EE89"/>
</svg>
