<svg xmlns="http://www.w3.org/2000/svg" viewBox="0 0 44 38" fill="none">
  <g clip-path="url(#a)" fill-rule="evenodd" clip-rule="evenodd">
    <path d="M21.507-.01c1.928-.001 3.596 1.246 4.006 2.995.409 1.748-.552 3.525-2.307 4.266l5.11 7.927 6.527-3.379c-.191-1.655.8-3.232 2.445-3.893 1.646-.661 3.563-.252 4.732 1.009 1.17 1.261 1.32 3.081.37 4.492-.95 1.412-2.777 2.086-4.512 1.664L35.44 27.288c-.36 1.802-2.053 3.109-4.028 3.109h-19.81c-1.975 0-3.67-1.307-4.028-3.109L5.137 15.07c-1.736.422-3.564-.253-4.513-1.665-.95-1.412-.8-3.233.372-4.493 1.17-1.261 3.09-1.668 4.735-1.004 1.645.663 2.634 2.242 2.44 3.897l6.528 3.373 5.11-7.927c-1.755-.741-2.716-2.517-2.307-4.266.409-1.748 2.077-2.996 4.005-2.995Zm-.78 16.301-.072.089-2.865 3.988a.89.89 0 0 0-.07.944l.07.111 2.865 3.988c.178.248.472.404.792.421a1.06 1.06 0 0 0 .84-.333l.072-.088 2.865-3.988a.893.893 0 0 0 .069-.945l-.07-.11-2.864-3.988a1.044 1.044 0 0 0-.792-.422 1.064 1.064 0 0 0-.84.333Z" fill="#B3BEC1"/>
    <path d="M31.747 34.198c1.132 0 2.048.851 2.048 1.901 0 1.049-.916 1.9-2.048 1.9h-20.48c-1.132 0-2.049-.851-2.049-1.9 0-1.05.917-1.901 2.049-1.901h20.48Z" fill="#24EE88"/>
  </g>
  <defs><clipPath id="a"><path fill="#fff" d="M0 0h44v38H0z"/></clipPath></defs>
</svg>
