<svg xmlns="http://www.w3.org/2000/svg" viewBox="0 0 28 29" fill="none">
  <g clip-path="url(#a)" fill-rule="evenodd" clip-rule="evenodd">
    <path d="M23.436 4.807A13.644 13.644 0 0 0 13.733.793 13.642 13.642 0 0 0 4.03 4.807a13.615 13.615 0 0 0-4.021 9.692c0 3.659 1.428 7.103 4.021 9.691a13.643 13.643 0 0 0 9.703 4.016c3.665 0 7.111-1.425 9.705-4.016a13.62 13.62 0 0 0 4.018-9.691c0-3.661-1.429-7.103-4.02-9.692Zm-1.165 18.222-5.378-5.373a4.465 4.465 0 0 1-2.002 1.154l1.969 7.345a12.155 12.155 0 0 1-3.128.407c-1.069 0-2.119-.139-3.127-.407l1.971-7.345a4.45 4.45 0 0 1-2.002-1.154l-5.38 5.373a11.985 11.985 0 0 1-3.126-5.41l7.347-1.964a4.478 4.478 0 0 1 0-2.31l-7.347-1.967a12.013 12.013 0 0 1 3.125-5.41l5.38 5.374a4.45 4.45 0 0 1 2.003-1.155l-1.971-7.344a12.166 12.166 0 0 1 3.128-.407c1.07 0 2.12.139 3.127.407l-1.969 7.344a4.47 4.47 0 0 1 2.003 1.157l5.377-5.374a12.008 12.008 0 0 1 3.134 5.407l-7.356 1.968a4.478 4.478 0 0 1 0 2.31l7.356 1.968a11.986 11.986 0 0 1-3.134 5.406Z" fill="#B3BEC1"/>
    <path d="M14.458 10.791a3.759 3.759 0 0 0-2.001 1.047 3.775 3.775 0 0 0 0 5.344 3.788 3.788 0 0 0 5.349 0 3.775 3.775 0 0 0-1.951-6.38l-.725-3.536-.672 3.525Z" fill="#3BEC82"/>
  </g>
  <defs><clipPath id="a"><path fill="#fff" d="M0 0h28v29H0z"/></clipPath></defs>
</svg>
