<svg xmlns="http://www.w3.org/2000/svg" viewBox="0 0 155.9 132.3" fill="currentColor">
  <rect x="93.3" y="88.4" width="14.4" height="45.6" rx="3.3" ry="3.3" transform="rotate(-42.9 100.567 111.202)" style="fill:#b2bdc0"/>
  <path d="M54.9 19.8c-25.2 0-45.6 20.4-45.6 45.6S29.7 111 54.9 111s45.6-20.4 45.6-45.6-20.4-45.6-45.6-45.6Zm0 76.1c-16.8 0-30.4-13.6-30.4-30.4s13.6-30.4 30.4-30.4 30.4 13.6 30.4 30.4-13.6 30.4-30.4 30.4Z" style="fill:#24ee89;fill-rule:evenodd"/>
  <path d="M116.2 1.5c-5.1 18.3-25.7 25.7-25.7 25.7 17.7 3.9 25.7 22.9 25.7 22.9s8-19 25.7-22.9c0 0-20.6-7.4-25.7-25.7Z" style="fill-rule:evenodd;fill:#b3bec1"/>
</svg>
