<svg xmlns="http://www.w3.org/2000/svg" viewBox="0 0 56.7 56.7">
  <path d="M20.9 34.4c-.5-.2-1 0-1.3.3l-3.7 3.8c-.3.2-.4.6-.4.9s.1.7.4.9c.2.3.5.4.9.4.3 0 .7-.1.9-.4l1.5-1.7v3.3c0 2.7-2.2 5-4.9 5s-4.9-2.2-4.9-5V12.2c1.5-.5 2.5-1.9 2.5-3.5 0-2-1.7-3.7-3.7-3.7S4.5 6.7 4.5 8.7c0 1.6 1 3.1 2.5 3.7V42c0 4.2 3.3 7.6 7.4 7.6 4.2-.1 7.4-3.5 7.4-7.7v-6.4c0-.5-.3-1-.8-1.2Z" style="fill:#3bec82"/>
  <path d="M53.3 21c-.1-.2-.2-.4-.4-.6l-.7-.8-2.3-1.9c-1.9-1.4-4.1-2.5-6.3-3.2-.4-.1-.8-.4-1.1-.6-2.6-2.6-5.6-4.7-8.8-6.3-4.2-2.2-9-2.9-13.6-2.2l-1.1.3h-.1c-.8 3.4-.7 6.8.3 10.1 1.2 4 3.2 7.8 6 11 .4.5.7 1 .9 1.7.6 2.1 1.4 4.1 2.5 6.1.3.5.6 1 1.1 1.4 1 .9 1.9.6 2.3-.6.1-.4.4-1.1.4-1.3 0-.2 0-.3.1-.4 1 .5 1.9 1.1 2.9 1.6 2.1.9 4 2.1 5.6 3.6 2.2 1.6 3.8 4 4.5 6.7.4-.3.7-.8.8-1.3.2-.9.1-1.9-.2-2.8-.2-.7-.5-1.4-.7-2.1v-.5c0-.2.2-.3.3-.4h.5c.2 0 .3.2.3.3.9 1.7 1.3 3.6 1.1 5.4 0 1-.6 1.9-1.3 2.5-.8.6-1.8.8-2.7.6-1.5-.2-3-.8-4.2-1.8-1.9-1.4-3.5-3.3-4.5-5.4-.2-.4-.4-.9-.9-.8-.5 0-.7.5-.8 1-.4 1.2-.5 2.5-.3 3.7.1.8.3 1.6.5 2.4.5 1.6 0 3.4-1 4.6-.6.7-.3 1.3.5 1.4 2.7.5 5.4.5 8.1 0 3.9-.7 7.3-3.1 9.3-6.5 1.5-2.7 2.3-5.7 2.2-8.7 0-4-.8-8-2.3-11.8l-.6-1.7c.8-.1 1.5-.3 2.2-.4.5 0 .9-.2 1.3-.4.3-.1.5-.3.6-.6v-.9ZM28 11.7c.3-.3.6-.5 1-.6.4 0 .8 0 1.2.3h.1c.6.7.7 1.7 0 2.3-.6.6-1.6.7-2.2 0-.6-.5-.7-1.5-.1-2.1Zm5.1 13.8c-1.4.9-3.1 1.2-4.7.6-.2 0-.3-.1-.4-.3v-.5c0-.1.2-.3.3-.3h.5c1.3.4 2.6.2 3.7-.5 2.2-1.4 4.1-3.2 5.7-5.2.5-.6 1.2-1.4 1.6-1.9.3-.4.7-.5 1-.3.3.2.3.6 0 1l-3.1 3.7c-1.3 1.5-2.9 2.7-4.5 3.8Z" style="fill:#b3bec1"/>
</svg>
