<svg xmlns="http://www.w3.org/2000/svg" viewBox="0 0 28 28" fill="none">
  <g clip-path="url(#a)" fill-rule="evenodd" clip-rule="evenodd">
    <path d="M25.852 13.936h-9.696l-4.311.001H2.15a2.24 2.24 0 0 1-1.524-.589 1.95 1.95 0 0 1-.631-1.421v-3.02c0-.531.227-1.042.631-1.421a2.24 2.24 0 0 1 1.524-.589h23.702c1.19 0 2.154.9 2.154 2.01v3.019c0 1.11-.964 2.01-2.154 2.01ZM3.227 15.945h8.619c.595 0 1.078.45 1.078 1.005v10.049l-.001-.001c0 .556-.482 1.005-1.078 1.005h-7.54a2.24 2.24 0 0 1-1.525-.588 1.944 1.944 0 0 1-.63-1.422V16.95c0-.266.114-.522.315-.711.201-.187.475-.293.762-.294Zm12.929 0h8.619c.594 0 1.077.45 1.077 1.005v9.043a1.945 1.945 0 0 1-.631 1.422 2.234 2.234 0 0 1-1.524.588h-7.541c-.287 0-.562-.106-.762-.294a.973.973 0 0 1-.316-.711V16.95c0-.555.483-1.005 1.078-1.005Z" fill="#B3BEC1"/>
    <path d="M23.716 6.897c.51-.566.852-1.244.99-1.968.252-1.349-.215-2.729-1.253-3.698C22.047-.077 19.89-.375 18.137.496c-.894.441-1.577 1.181-2.006 2.035l-2.13 4.234-2.147-4.268c-.358-.711-.892-1.343-1.592-1.777-1.883-1.164-4.245-.859-5.714.512C3.51 2.2 3.043 3.58 3.296 4.929a4.08 4.08 0 0 0 .989 1.968m4.069 0L6.736 6.19c-.697-.3-1.191-.902-1.319-1.607a2.078 2.078 0 0 1 .654-1.93 2.423 2.423 0 0 1 2.069-.61c.757.12 1.402.579 1.723 1.229l1.824 3.625H8.354Zm14.229-2.314c-.127.705-.62 1.307-1.317 1.607l-1.618.707h-3.334l1.824-3.625c.321-.65.966-1.11 1.724-1.229.755-.128 1.529.1 2.068.61a2.07 2.07 0 0 1 .653 1.93Z" fill="#24EE88"/>
  </g>
  <defs><clipPath id="a"><path fill="#fff" d="M0 0h28v28H0z"/></clipPath></defs>
</svg>
