<svg xmlns="http://www.w3.org/2000/svg" viewBox="0 0 56.7 56.7">
  <path d="M28.5 4.2c-13.6 0-24.6 11-24.6 24.6s11 24.6 24.6 24.6 24.6-11 24.6-24.6-11-24.6-24.6-24.6Zm3.4 34.5c-7.4 2-15-2.4-17-9.8s2.4-15 9.8-17 15 2.4 17 9.8-2.4 15-9.8 17Z" style="fill:#b1bdc0"/>
  <path d="M36.2 28.1c-.6-2.1-2.3-3.7-4.5-4.3 1.2-1.5 1.6-3.3 1.1-5-.8-3.1-4.3-4.9-7.7-4-3.4.9-5.5 4.2-4.7 7.3.5 1.8 1.9 3.2 3.8 3.9-1.5 1.6-2 3.8-1.5 5.8.9 3.4 4.7 5.3 8.4 4.3s6-4.6 5.1-7.9ZM24 21.2c-.4-1.3.6-2.7 2-3.1 1.5-.4 3 .4 3.3 1.7.4 1.3-.6 2.7-2 3.1-1.5.4-3-.4-3.3-1.7Zm6.3 11.6c-1.7.5-3.4-.4-3.8-1.9-.4-1.5.6-3.1 2.3-3.6 1.7-.5 3.4.4 3.8 1.9.4 1.5-.6 3.1-2.3 3.6Z" style="fill:#3bec82"/>
</svg>
