<svg xmlns="http://www.w3.org/2000/svg" viewBox="0 0 40 39" fill="none">
  <g clip-path="url(#a)" fill-rule="evenodd" clip-rule="evenodd">
    <path d="M.434 16.352c.079-.805.753-1.564 1.529-1.792.085-.026.31-.089.387-.089h26.974c.003.051-.019.097-.021.146-.015.416-.026.943 0 1.354.05.788.971.801 1.124.225.081-.305.042-1.221.03-1.579-.002-.049-.025-.095-.021-.146h6.8c.288 0 .785.238 1.021.404 1.285.908.804 2.382.897 3.72.002.03-.001.054-.02.079-.032.043-.243.17-.309.224-1.324 1.107-1.324 2.947 0 4.054.067.055.316.207.327.265v7.227c-.011.057-.26.209-.327.265-1.102.921-1.336 2.42-.455 3.582.219.289.492.5.779.72-.06 1.135.283 2.303-.592 3.209-.276.286-.914.656-1.321.656h-6.78v-.931c0-.717-1.152-.717-1.152 0v.931H2.35c-.077 0-.302-.063-.387-.088-.776-.229-1.45-.988-1.529-1.793v-2.036c.547-.365.989-.908 1.166-1.544.317-1.14-.195-2.261-1.166-2.903v-7.364c.547-.365.989-.908 1.166-1.543.317-1.141-.195-2.262-1.166-2.903.054-.754-.073-1.609 0-2.35Z" fill="#B0B3B3"/>
    <path d="M18.547 23.124c-.452-.882-.936-1.748-1.402-2.623l-.791-1.531c-.301-.489-.672-.371-.933.071-.415.708-.786 1.517-1.177 2.247-.322.6-.641 1.203-.984 1.79" fill="#24EE88"/>
    <path d="M31.865.154c1.025.115 1.862.955 2.281 1.834.142.297.525 1.369.45 1.653-.024.089-.131.24-.173.338-.849 1.998.124 3.629 1.859 4.676l1.421 3.76h-9.61c-.014-.054-.024-.11-.044-.162-.085-.22-.402-1.039-.538-1.164a1.637 1.637 0 0 0-.218-.128c-.167-.048-.424-.011-.507.155.079.43.213.857.195 1.299H6.093l17.439-8.486c.198-.028.186.048.279.155.176.204.238.365.362.591.041.074.173.35.213.39.009.009.036.003.046.011.019.017.021.04.052.057.06.034.237.052.3.032.025-.008.027-.042.047-.057.052-.04.07-.008.095-.118.111-.482-.494-1.237-.1-1.592.086-.077.215-.171.328-.257L31.707.154c.051.004.108-.006.158 0Z" fill="#B3BEC1"/>
  </g>
  <defs><clipPath id="a"><path fill="#fff" d="M0 0h40v39H0z"/></clipPath></defs>
</svg>
