<svg xmlns="http://www.w3.org/2000/svg" viewBox="0 0 56.7 56.7">
  <defs>
    <style>.slots-st4{fill-rule:evenodd;fill:#b3bec1}</style>
  </defs>
  <path d="M54.3 23.4v-2.2c0-.8-.3-1.5-.8-2s-1.3-.8-2-.8H5.3c-1.6 0-2.8 1.3-2.8 2.9V39c0 1.6 1.3 2.8 2.8 2.8h46.2c1.6 0 2.8-1.3 2.8-2.9V23.3Z" style="fill-rule:evenodd;fill:#3bec82"/>
  <path class="slots-st4" d="M50.9 15.1H5.8c-.9 0-1.8-.3-2.4-1-.6-.6-1-1.5-1-2.4 0-.9.4-1.7 1-2.4.6-.6 1.5-1 2.4-1h13c.3 0 .5 0 .6-.4.9-3.7 4.2-6.2 8-6.3 3.8 0 7.1 2.5 8.1 6.2.1.4.3.5.7.5H51c1.9 0 3.4 1.5 3.4 3.4s-1.5 3.4-3.4 3.4ZM5.8 45h45.1c1.8 0 3.3 1.6 3.3 3.4s-1.4 3.3-3.3 3.4H5.8c-1.8 0-3.3-1.5-3.3-3.4S4 45.1 5.8 45Z"/>
</svg>
