<svg xmlns="http://www.w3.org/2000/svg" viewBox="0 0 33 33" fill="none">
  <g clip-path="url(#a)" fill-rule="evenodd" clip-rule="evenodd">
    <path d="M.675 13.881c.067-.67.628-1.301 1.274-1.492.071-.021.258-.073.322-.073h22.458c.003.042-.016.08-.017.121-.013.346-.022.785 0 1.127.041.656.808.667.935.188.068-.254.036-1.017.025-1.315-.002-.041-.02-.079-.017-.121h5.662c.239 0 .653.197.849.336 1.071.756.67 1.983.747 3.097a.091.091 0 0 1-.016.066c-.027.036-.203.141-.257.187-1.103.921-1.103 2.453 0 3.374.055.047.262.173.272.221v6.017c-.01.048-.217.175-.272.221-.918.767-1.113 2.015-.38 2.982.183.241.41.417.649.6-.05.945.236 1.917-.493 2.672-.23.238-.761.546-1.099.546h-5.646v-.775c0-.598-.959-.598-.959 0v.775H2.271c-.064 0-.251-.053-.322-.074-.646-.19-1.207-.822-1.274-1.492v-1.696c.456-.304.824-.756.971-1.285.265-.949-.161-1.883-.971-2.417V19.54c.456-.304.824-.756.971-1.285.265-.95-.161-1.883-.971-2.417.046-.627-.06-1.339 0-1.957Z" fill="#B3BEC1"/>
    <path d="M26.845.395c.853.096 1.55.795 1.899 1.527.118.248.437 1.141.374 1.377-.019.074-.108.199-.143.282-.707 1.662.103 3.021 1.547 3.892l1.183 3.131h-8.001c-.011-.045-.02-.092-.037-.135-.07-.183-.334-.865-.447-.969a1.378 1.378 0 0 0-.182-.107c-.139-.04-.353-.009-.422.129.065.358.177.714.162 1.082H5.387l14.52-7.065c.164-.024.155.039.232.129.147.17.198.304.302.492.033.061.143.291.177.324.007.007.029.003.038.01.016.013.018.033.043.047a.478.478 0 0 0 .25.026c.021-.006.023-.034.039-.047.043-.033.059-.007.079-.098.093-.401-.411-1.03-.083-1.326.071-.064.179-.142.273-.214L26.713.395c.043.004.09-.004.132 0Z" fill="#24EE88"/>
  </g>
  <defs><clipPath id="a"><path fill="#fff" d="M0 0h33v33H0z"/></clipPath></defs>
</svg>
