<svg xmlns="http://www.w3.org/2000/svg" viewBox="0 0 39 39" fill="currentColor">
  <g clip-path="url(#a)" fill-rule="evenodd" clip-rule="evenodd">
    <path d="M29.374 38.501a7.927 7.927 0 0 1-7.879-7.885v-8.353a.56.56 0 0 1 .558-.558h8.353a7.925 7.925 0 0 1 7.921 7.836c0 4.948-4.009 8.96-8.953 8.96Zm-20.544 0c-4.5 0-8.155-3.652-8.155-8.161.024-4.78 3.9-8.635 8.671-8.635h7.513a.563.563 0 0 1 .6.516v7.735a8.589 8.589 0 0 1-8.629 8.545Zm8.034-20.876H8.506A7.832 7.832 0 0 1 .675 9.788c0-4.947 4.007-8.957 8.95-8.959a7.833 7.833 0 0 1 7.798 7.836v8.401a.562.562 0 0 1-.559.559Z"/>
    <path d="M22.053 17.625h7.183c5.016 0 9.084-4.072 9.084-9.091v-.043c0-4.233-3.426-7.662-7.65-7.662a9.178 9.178 0 0 0-9.133 9.182v6.995a.558.558 0 0 0 .498.612h.018v.007Z" fill="#24EE88"/>
  </g>
  <defs><clipPath id="a"><path fill="#fff" d="M0 0h39v39H0z"/></clipPath></defs>
</svg>
