<svg xmlns="http://www.w3.org/2000/svg" viewBox="0 0 42.5 42.5" fill="currentColor">
  <path d="M32.6 38.5H22.1V22.7h10.1c.6 0 1.5 1 1.5 1.6v13c0 .5-.3.9-.8 1.1h-.4ZM10 38.5c-.6-.2-1-.7-1.1-1.3V24.5c0-.7.8-1.8 1.5-1.8h10.1v15.8H10Z" fill="#b3bec1"/>
  <path d="m2 20 9.5-6 3.2 5.2-9.5 6-.3-.2c-1-1.5-1.9-3.1-3-4.6v-.3Z" fill="#24ee88"/>
  <path d="M15 4.1c1.6.2 2.4 1.4 2.1 2.9-.8 3.7-7.4 7.8-11 8S1.8 12.3 4 9.9s4.3-1.2 6.3.2" fill="#b3bec1"/>
  <path d="m40.3 13.7s-.3.3-.5.3-.4 0-.6.1-.9.3-1 .4c-.6.3-.9.7-1.2 1.3s-.3.6-.3.9c-.2.5-.4 1.6-.8.9-.4-1.1-.5-2.4-1.5-3-.4-.2-.7-.4-1.2-.5s-.1 0-.2 0c-.2 0-1-.1-1-.3s0-.4.2-.5c.9-.4 1.9-.3 2.6-1.2s.7-1.8 1-2.5.5-.3.6.1c.2.6.4 1.2.5 1.7s.3.7.6.9c.7.6 1.6.6 2.4.9s.3.1.4.2 0 .2 0 .3Z" fill="#24ee88"/>
  <path d="m40.5 20-9.5-6-3.2 5.2 9.5 6 .3-.2c1-1.5 1.9-3.1 3-4.6v-.3Z" fill="#24ee88"/>
  <path d="M27.5 4.1c-1.6.2-2.4 1.4-2.1 2.9.8 3.7 7.4 7.8 11 8s4.2-2.7 2-5.1-4.3-1.2-6.3.2" fill="#b3bec1"/>
  <circle cx="21.3" cy="7.5" r="5" fill="#24ee88"/>
</svg>
